<svg xmlns="http://www.w3.org/2000/svg" viewBox="0 0 48 48">
<path fill="#1976D2" d="M28 13h14.533C43.343 13 44 13.657 44 14.467V22l-16 6-16-6v-7.533C12 13.657 12.657 13 13.467 13H28z"/>
<path fill="#2196F3" d="M44 22L28 28v16h14.533c.81 0 1.467-.657 1.467-1.467V22z"/>
<path fill="#0D47A1" d="M28 28L12 22v20.533c0 .81.657 1.467 1.467 1.467H28V28z"/>
<path fill="#1565C0" d="M4 10h22a2 2 0 012 2v24a2 2 0 01-2 2H4a2 2 0 01-2-2V12a2 2 0 012-2z"/>
<path fill="#FFF" d="M15 20.5c-3.59 0-6.5 2.91-6.5 6.5s2.91 6.5 6.5 6.5 6.5-2.91 6.5-6.5-2.91-6.5-6.5-6.5zm0 10.5c-2.21 0-4-1.79-4-4s1.79-4 4-4 4 1.79 4 4-1.79 4-4 4z"/>
</svg>
