<svg width="127" height="40" viewBox="0 0 127 40" fill="none" xmlns="http://www.w3.org/2000/svg">
<g clip-path="url(#clip0_2656_58388)">
<path d="M74.5533 11.0669C74.3234 11.0546 74.0997 11.0361 73.8636 11.0361C71.3907 11.0361 68.924 12.0978 67.6441 14.0607V11.5237H62.251V30.6286H67.6441V21.0978C67.6441 18.1904 70.1543 16.0237 72.8322 16.0237C73.4473 16.0237 74.019 16.1533 74.5471 16.3509V11.0669H74.5533Z" fill="black"/>
<path d="M28.8183 11.036C26.6374 11.036 24.0029 11.9373 22.6422 13.857V11.5237H17.2491V39.999H22.6422V28.2582C24.0029 30.2212 26.6374 31.1224 28.8183 31.1224C33.7578 31.1224 38.2501 27.2336 38.2501 21.0607C38.2438 14.9619 33.7578 11.036 28.8183 11.036ZM27.7868 26.1286C25.2767 26.1286 22.8038 23.999 22.8038 21.0977C22.8038 18.1965 25.1524 16.0237 27.7868 16.0237C30.5021 16.0237 32.7264 18.2768 32.7264 21.0977C32.7264 23.9187 30.5021 26.1286 27.7868 26.1286ZM55.1316 14.0607C53.8579 12.0977 51.385 11.036 48.9121 11.036C43.3947 11.036 39.5238 15.1657 39.5238 21.0977C39.5238 27.0298 43.4754 31.1224 48.7878 31.1224C51.385 31.1224 53.8517 29.857 55.1316 27.8879V30.6286H60.5248V11.5237H55.1316V14.0607ZM49.9808 26.1286C47.1413 26.1286 45.0412 23.7582 45.0412 21.0977C45.0412 18.3138 47.1413 16.0237 49.9435 16.0237C52.6214 16.0237 54.9701 18.1903 54.9701 21.0977C54.9639 23.8385 52.7022 26.1286 49.9808 26.1286Z" fill="black"/>
<path d="M8.02219 31.1224C11.9739 31.1224 16.0933 29.036 16.0933 25.0236C16.0933 23.4681 15.5154 20.6039 10.9052 19.3755L7.73637 18.5545C6.66768 18.2705 5.84131 17.8199 5.84131 16.9187C5.84131 15.9372 6.82923 15.2397 8.06568 15.2397C9.33941 15.2397 10.4143 15.9372 10.4143 17.2459H15.5589C15.6024 12.7026 11.483 11.0298 7.98491 11.0298C3.53618 11.0298 0.448165 13.8138 0.448165 16.7582C0.448165 18.7644 1.10677 21.5051 6.04635 22.8138L8.60002 23.4249C10.0415 23.7952 10.7001 24.2026 10.7001 25.0175C10.7001 26.1224 9.50717 26.9002 7.94141 26.9002C6.04635 26.9002 5.10193 25.715 5.10193 24.6101H0.0380859C0.0753658 28.8323 3.98354 31.1224 8.02219 31.1224Z" fill="black"/>
<path d="M75.9635 1.13477V30.6286H81.3567V22.3632L88.1105 30.6286H94.8209L85.6377 19.9558L93.1309 11.5237H86.2155L81.3567 17.3755V1.13477H75.9635Z" fill="black"/>
<path fill-rule="evenodd" clip-rule="evenodd" d="M126.861 28.8864L113.276 0.768583C113.051 0.295136 112.576 0 112.058 0C111.541 0 111.066 0.301284 110.834 0.768583L97.2555 28.8864C97.0059 29.4029 97.1033 30.0178 97.493 30.4359C97.8827 30.8478 98.4916 30.9769 99.0153 30.7494L107.948 26.8758C107.997 26.8512 108.052 26.8451 108.113 26.8451C108.283 26.8451 108.429 26.9496 108.49 27.0971L110.804 32.8892C111.011 33.4057 111.51 33.75 112.064 33.75H112.071C112.625 33.75 113.124 33.4057 113.331 32.883L115.59 27.0971C115.651 26.9557 115.797 26.8512 115.962 26.8512C116.01 26.8512 116.059 26.8573 116.102 26.8758L125.114 30.7617C125.637 30.9892 126.24 30.8601 126.63 30.4482C127.02 30.0362 127.111 29.4029 126.861 28.8864ZM111.726 2.33349L111.148 26.1435C111.136 26.6559 111.546 27.078 112.057 27.078C112.569 27.078 112.98 26.6526 112.965 26.1382L112.248 2.33195C112.244 2.19047 112.128 2.078 111.987 2.078C111.846 2.078 111.73 2.19139 111.726 2.33349Z" fill="url(#paint0_linear_2656_58388)"/>
</g>
<defs>
<linearGradient id="paint0_linear_2656_58388" x1="112.369" y1="33.7419" x2="112.369" y2="0" gradientUnits="userSpaceOnUse">
<stop stop-color="#006DEE"/>
<stop offset="0.3113" stop-color="#1E9DF5"/>
<stop offset="0.6136" stop-color="#36C5FA"/>
<stop offset="0.8531" stop-color="#45DDFE"/>
<stop offset="1" stop-color="#4BE6FF"/>
</linearGradient>
<clipPath id="clip0_2656_58388">
<rect width="127" height="40" fill="white"/>
</clipPath>
</defs>
</svg>
