<?xml version="1.0" encoding="UTF-8" standalone="no"?>
<!-- Created with Inkscape (http://www.inkscape.org/) -->

<svg
   width="1000"
   height="277.32422"
   viewBox="0 0 264.58333 73.375368"
   version="1.1"
   id="svg8"
   inkscape:version="1.4 (86a8ad7, 2024-10-11)"
   sodipodi:docname="Yahoo!_(2019).svg"
   xml:space="preserve"
   xmlns:inkscape="http://www.inkscape.org/namespaces/inkscape"
   xmlns:sodipodi="http://sodipodi.sourceforge.net/DTD/sodipodi-0.dtd"
   xmlns="http://www.w3.org/2000/svg"
   xmlns:svg="http://www.w3.org/2000/svg"
   xmlns:rdf="http://www.w3.org/1999/02/22-rdf-syntax-ns#"
   xmlns:cc="http://creativecommons.org/ns#"
   xmlns:dc="http://purl.org/dc/elements/1.1/"><defs
     id="defs2" /><sodipodi:namedview
     id="base"
     pagecolor="#ffffff"
     bordercolor="#666666"
     borderopacity="1.0"
     inkscape:pageopacity="0.0"
     inkscape:pageshadow="2"
     inkscape:zoom="0.5"
     inkscape:cx="297"
     inkscape:cy="49"
     inkscape:document-units="px"
     inkscape:current-layer="svg8"
     showgrid="false"
     units="px"
     inkscape:window-width="1366"
     inkscape:window-height="705"
     inkscape:window-x="-8"
     inkscape:window-y="-8"
     inkscape:window-maximized="1"
     fit-margin-top="0"
     fit-margin-left="0"
     fit-margin-right="0"
     fit-margin-bottom="0"
     inkscape:showpageshadow="2"
     inkscape:pagecheckerboard="0"
     inkscape:deskcolor="#d1d1d1" /><metadata
     id="metadata5"><rdf:RDF><cc:Work
         rdf:about=""><dc:format>image/svg+xml</dc:format><dc:type
           rdf:resource="http://purl.org/dc/dcmitype/StillImage" /><dc:title /></cc:Work></rdf:RDF></metadata><path
     d="m 94.8955,0 v 58.314787 h 14.35985 V 36.249984 c 0,-3.102325 1.80211,-6.189803 5.26014,-6.189803 3.39707,0 4.89686,3.041387 4.89686,6.189803 v 22.064803 h 14.25443 V 32.747355 c 0,-9.303225 -5.11958,-15.813505 -13.85755,-15.813505 -7.14348,0 -10.55388,4.746481 -10.55388,4.746481 V 0 Z m 152.58552,0 -15.23525,36.60035 h 17.1664 L 264.58333,0 Z M 65.483859,16.928683 c -11.82693,0 -19.303215,10.606971 -19.303215,21.169767 0,11.886248 8.196949,21.30981 19.078939,21.30981 8.11755,0 11.178129,-4.945434 11.178129,-4.945434 v 3.852478 H 90.167107 V 17.862476 H 76.437712 v 3.677811 c 0,0 -3.414723,-4.611604 -10.953853,-4.611604 z m 92.666181,0.0047 c -13.54405,0 -21.60902,10.299293 -21.60902,21.333582 0,12.557205 9.76469,21.141345 21.66018,21.141345 11.52964,0 21.61832,-8.194915 21.61832,-20.931022 0,-13.93561 -10.56303,-21.543905 -21.66948,-21.543905 z m 45.59256,0 c -13.54403,0 -21.60901,10.299293 -21.60901,21.333582 0,12.557205 9.76469,21.141345 21.66017,21.141345 11.52965,0 21.61832,-8.194915 21.61832,-20.931022 0,-13.93561 -10.563,-21.543905 -21.66948,-21.543905 z M 0,17.862476 17.333309,58.665153 11.016382,73.375367 H 26.43973 L 49.517908,17.862476 H 34.191712 L 24.90649,41.312207 15.741158,17.862476 Z m 68.404094,12.066447 c 5.45704,0 8.273397,4.317754 8.273397,8.213969 0,4.195494 -3.017287,8.312671 -8.273397,8.312671 -4.35623,0 -8.292517,-3.559662 -8.292517,-8.133871 0,-4.638933 3.166107,-8.392769 8.292517,-8.392769 z m 89.875136,0.118855 c 4.78424,0 8.0946,3.984832 8.0946,8.234123 0,3.624323 -3.08466,8.094597 -8.0946,8.094597 -4.5906,0 -8.03569,-3.682553 -8.03569,-8.134388 0,-4.288553 2.86425,-8.194332 8.03569,-8.194332 z m 45.59256,0 c 4.78424,0 8.0946,3.984832 8.0946,8.234123 0,3.624323 -3.08466,8.094597 -8.0946,8.094597 -4.59061,0 -8.03568,-3.682553 -8.03568,-8.134388 0,-4.288553 2.86424,-8.194332 8.03568,-8.194332 z m 32.87138,10.055201 c -5.2663,-10e-7 -9.53533,4.269033 -9.53533,9.535335 0,5.266303 4.26903,9.535335 9.53533,9.535335 5.26631,0 9.53534,-4.269033 9.53534,-9.535335 0,-5.266302 -4.26903,-9.535335 -9.53534,-9.535335 z"
     style="opacity:1;fill:#7d2eff;stroke-width:0.0875601;stroke-linejoin:round;stroke-miterlimit:2.6131;fill-opacity:1"
     id="path1" /></svg>
